HIERARCHY
ROOT Hips
{
	OFFSET -14.64140 90.27770 -84.91600
	CHANNELS 6 Xposition Yposition Zposition Zrotation Xrotation Yrotation
	JOINT Spine
	{
		OFFSET 0.00000 13.20850 -1.60436
		CHANNELS 3 Zrotation Xrotation Yrotation
		JOINT Spine1
		{
			OFFSET 0.00000 8.61716 0.00000
			CHANNELS 3 Zrotation Xrotation Yrotation
			JOINT Spine2
			{
				OFFSET 0.00000 8.61717 0.00000
				CHANNELS 3 Zrotation Xrotation Yrotation
				JOINT Spine3
				{
					OFFSET 0.00000 8.61717 0.00000
					CHANNELS 3 Zrotation Xrotation Yrotation
					JOINT Neck
					{
						OFFSET 0.00000 11.07920 1.10792
						CHANNELS 3 Zrotation Xrotation Yrotation
						JOINT Neck1
						{
							OFFSET 0.00000 7.08032 0.00000
							CHANNELS 3 Zrotation Xrotation Yrotation
							JOINT Head
							{
								OFFSET 0.00000 7.08031 0.00000
								CHANNELS 3 Zrotation Xrotation Yrotation
								End site
								{
									OFFSET 0.00000 0.00000 0.00000
								}
							}
						}
					}
					JOINT RightShoulder
					{
						OFFSET -0.01000 7.91373 5.19711
						CHANNELS 3 Zrotation Xrotation Yrotation
						JOINT RightArm
						{
							OFFSET -18.41580 0.00000 0.00000
							CHANNELS 3 Zrotation Xrotation Yrotation
							JOINT RightForeArm
							{
								OFFSET -29.11090 0.00000 0.00000
								CHANNELS 3 Zrotation Xrotation Yrotation
								JOINT RightHand
								{
									OFFSET -24.65040 0.00000 0.00000
									CHANNELS 3 Zrotation Xrotation Yrotation
									JOINT RightHandThumb1
									{
										OFFSET -5.35114 -0.85590 3.97906
										CHANNELS 3 Zrotation Xrotation Yrotation
										JOINT RightHandThumb2
										{
											OFFSET -4.52789 0.00000 0.00000
											CHANNELS 3 Zrotation Xrotation Yrotation
											JOINT RightHandThumb3
											{
												OFFSET -2.46976 0.00000 0.00000
												CHANNELS 3 Zrotation Xrotation Yrotation
												End site
												{
													OFFSET 0.00000 0.00000 0.00000
												}
											}
										}
									}
									JOINT RightHandIndex1
									{
										OFFSET -14.26970 0.00000 2.88139
										CHANNELS 3 Zrotation Xrotation Yrotation
										JOINT RightHandIndex2
										{
											OFFSET -5.48836 0.00000 0.00000
											CHANNELS 3 Zrotation Xrotation Yrotation
											JOINT RightHandIndex3
											{
												OFFSET -3.01859 0.00000 0.00000
												CHANNELS 3 Zrotation Xrotation Yrotation
												End site
												{
													OFFSET 0.00000 0.00000 0.00000
												}
											}
										}
									}
									JOINT RightHandMiddle1
									{
										OFFSET -14.26970 0.00000 -0.09147
										CHANNELS 3 Zrotation Xrotation Yrotation
										JOINT RightHandMiddle2
										{
											OFFSET -6.17441 0.00000 0.00000
											CHANNELS 3 Zrotation Xrotation Yrotation
											JOINT RightHandMiddle3
											{
												OFFSET -3.56743 0.00000 0.00000
												CHANNELS 3 Zrotation Xrotation Yrotation
												End site
												{
													OFFSET 0.00000 0.00000 0.00000
												}
											}
										}
									}
									JOINT RightHandRing1
									{
										OFFSET -12.69180 0.00000 -3.06433
										CHANNELS 3 Zrotation Xrotation Yrotation
										JOINT RightHandRing2
										{
											OFFSET -5.62556 0.00000 0.00000
											CHANNELS 3 Zrotation Xrotation Yrotation
											JOINT RightHandRing3
											{
												OFFSET -3.56744 0.00000 0.00000
												CHANNELS 3 Zrotation Xrotation Yrotation
												End site
												{
													OFFSET 0.00000 0.00000 0.00000
												}
											}
										}
									}
									JOINT RightHandPinky1
									{
										OFFSET -11.11390 0.00000 -6.03719
										CHANNELS 3 Zrotation Xrotation Yrotation
										JOINT RightHandPinky2
										{
											OFFSET -4.52789 0.00000 0.00000
											CHANNELS 3 Zrotation Xrotation Yrotation
											JOINT RightHandPinky3
											{
												OFFSET -2.46976 0.00000 0.00000
												CHANNELS 3 Zrotation Xrotation Yrotation
												End site
												{
													OFFSET 0.00000 0.00000 0.00000
												}
											}
										}
									}
								}
							}
						}
					}
					JOINT LeftShoulder
					{
						OFFSET 0.01000 7.91373 5.19711
						CHANNELS 3 Zrotation Xrotation Yrotation
						JOINT LeftArm
						{
							OFFSET 18.41580 0.00000 0.00000
							CHANNELS 3 Zrotation Xrotation Yrotation
							JOINT LeftForeArm
							{
								OFFSET 29.11090 0.00000 0.00000
								CHANNELS 3 Zrotation Xrotation Yrotation
								JOINT LeftHand
								{
									OFFSET 24.65040 0.00000 0.00000
									CHANNELS 3 Zrotation Xrotation Yrotation
									JOINT LeftHandThumb1
									{
										OFFSET 5.35114 -0.85590 3.97906
										CHANNELS 3 Zrotation Xrotation Yrotation
										JOINT LeftHandThumb2
										{
											OFFSET 4.52789 0.00000 0.00000
											CHANNELS 3 Zrotation Xrotation Yrotation
											JOINT LeftHandThumb3
											{
												OFFSET 2.46977 0.00000 0.00000
												CHANNELS 3 Zrotation Xrotation Yrotation
												End site
												{
													OFFSET 0.00000 0.00000 0.00000
												}
											}
										}
									}
									JOINT LeftHandIndex1
									{
										OFFSET 14.26970 0.00000 2.88139
										CHANNELS 3 Zrotation Xrotation Yrotation
										JOINT LeftHandIndex2
										{
											OFFSET 5.48836 0.00000 0.00000
											CHANNELS 3 Zrotation Xrotation Yrotation
											JOINT LeftHandIndex3
											{
												OFFSET 3.01859 0.00000 0.00000
												CHANNELS 3 Zrotation Xrotation Yrotation
												End site
												{
													OFFSET 0.00000 0.00000 0.00000
												}
											}
										}
									}
									JOINT LeftHandMiddle1
									{
										OFFSET 14.26970 0.00000 -0.09147
										CHANNELS 3 Zrotation Xrotation Yrotation
										JOINT LeftHandMiddle2
										{
											OFFSET 6.17440 0.00000 0.00000
											CHANNELS 3 Zrotation Xrotation Yrotation
											JOINT LeftHandMiddle3
											{
												OFFSET 3.56744 0.00000 0.00000
												CHANNELS 3 Zrotation Xrotation Yrotation
												End site
												{
													OFFSET 0.00000 0.00000 0.00000
												}
											}
										}
									}
									JOINT LeftHandRing1
									{
										OFFSET 12.69180 0.00000 -3.06433
										CHANNELS 3 Zrotation Xrotation Yrotation
										JOINT LeftHandRing2
										{
											OFFSET 5.62556 0.00000 0.00000
											CHANNELS 3 Zrotation Xrotation Yrotation
											JOINT LeftHandRing3
											{
												OFFSET 3.56744 0.00000 0.00000
												CHANNELS 3 Zrotation Xrotation Yrotation
												End site
												{
													OFFSET 0.00000 0.00000 0.00000
												}
											}
										}
									}
									JOINT LeftHandPinky1
									{
										OFFSET 11.11390 0.00000 -6.03719
										CHANNELS 3 Zrotation Xrotation Yrotation
										JOINT LeftHandPinky2
										{
											OFFSET 4.52789 0.00000 0.00000
											CHANNELS 3 Zrotation Xrotation Yrotation
											JOINT LeftHandPinky3
											{
												OFFSET 2.46976 0.00000 0.00000
												CHANNELS 3 Zrotation Xrotation Yrotation
												End site
												{
													OFFSET 0.00000 0.00000 0.00000
												}
											}
										}
									}
								}
							}
						}
					}
					JOINT pCube4
					{
						OFFSET 0.00000 10.91090 1.10792
						CHANNELS 3 Zrotation Xrotation Yrotation
						End site
						{
							OFFSET 0.00000 0.00000 0.00000
						}
					}
				}
			}
		}
	}
	JOINT RightUpLeg
	{
		OFFSET -9.98441 0.00000 0.00000
		CHANNELS 3 Zrotation Xrotation Yrotation
		JOINT RightLeg
		{
			OFFSET 0.00000 -42.11790 0.00000
			CHANNELS 3 Zrotation Xrotation Yrotation
			JOINT RightFoot
			{
				OFFSET 0.00000 -45.00020 -0.00001
				CHANNELS 3 Zrotation Xrotation Yrotation
				JOINT RightForeFoot
				{
					OFFSET 0.00000 -3.74820 0.00000
					CHANNELS 3 Zrotation Xrotation Yrotation
					JOINT RightToeBase
					{
						OFFSET 0.00000 0.06325 14.43120
						CHANNELS 3 Zrotation Xrotation Yrotation
						End site
						{
							OFFSET 0.00000 0.00000 0.00000
						}
					}
				}
			}
		}
	}
	JOINT LeftUpLeg
	{
		OFFSET 9.98441 0.00000 0.00000
		CHANNELS 3 Zrotation Xrotation Yrotation
		JOINT LeftLeg
		{
			OFFSET 0.00000 -42.11800 0.00000
			CHANNELS 3 Zrotation Xrotation Yrotation
			JOINT LeftFoot
			{
				OFFSET 0.00000 -45.00070 0.00000
				CHANNELS 3 Zrotation Xrotation Yrotation
				JOINT LeftForeFoot
				{
					OFFSET 0.00000 -3.74824 0.00000
					CHANNELS 3 Zrotation Xrotation Yrotation
					JOINT LeftToeBase
					{
						OFFSET 0.00000 0.06325 14.43110
						CHANNELS 3 Zrotation Xrotation Yrotation
						End site
						{
							OFFSET 0.00000 0.00000 0.00000
						}
					}
				}
			}
		}
	}
}
MOTION
Frames: 4
Frame Time: 0.050000
0.028924270413495386 -0.027924584109933 -0.005203018005170973 -0.019177281229727956 -0.027000953361012575 0.018226553173977426 -4.6933150002663435 7.445239835086432 -0.46955469088026214 -0.6774408622792951 2.8555066923866974 0.3869510223357342 -0.8642179509257062 -0.05744122418385034 -1.2544748648823776 -1.3174915697543879 0.29999317389399105 -0.9760236033717548 -1.0258851914636213 8.660196587565586 2.4104082857329097 -0.14836386940972449 -0.8629572771100043 2.241058614330307 -0.769152255151333 -14.844030265089788 0.305990745866581 2.996419100584055 0.12370962108734325 -8.17449103050228 68.61504691708267 4.222493764813819 42.079744712560185 45.628742467176586 13.55808526318258 101.85903649594985 28.97014106422837 0.45473781519856643 -15.235161398945145 4.572103894048519 -0.11426101080543143 -1.5765418720802147 0.011457950289326899 0.03972541739011535 -56.22031369830739 0.00815294795912062 0.004455672965660139 -56.2666425281877 -38.769082783082226 0.0014118539937242188 0.02891594699697008 0.02109578897757114 -0.007308146683548992 -0.01323147601435272 0.031063359719875876 0.04721935204286255 0.018529004996137157 -36.7118508779184 -0.007613439680666282 -0.04696470073344445 -0.008537902552984328 -0.0435689361418344 0.020005512431513946 -0.013396773962790083 -0.016878863608135813 -0.011496962329212932 -19.78534181474516 -0.018241570244279342 0.011140065482749067 -0.024463607927926255 -0.014529378310510889 0.0075562710045134944 -0.03707342944184854 -0.029193827309389273 -0.03472031220081679 24.081289518384175 0.004463077308149833 -0.00397230800054921 28.822418004327446 0.016873994647285014 0.030091283684023213 28.84966242989164 -0.020396640259943227 -0.002458923573614247 0.22536339596606245 0.5389923716335128 7.610957374541415 -62.986209002750705 18.829356520611974 -39.598035635260565 -57.61948230144734 16.05765328514551 -109.96948849624155 -25.77720568247597 -7.407354678607842 5.318612059660954 -0.4515112463366891 0.0908633069012394 -8.092359405012077 -0.030518560426630262 0.0016777297837088847 44.53441984377338 0.02559914884523879 0.009166137658616033 44.55469296159304 12.44983414732344 0.007862254112651835 -0.00969907565842042 0.03483591308745247 -0.03908864054774007 -0.03650127028031246 0.004656431741365819 0.021898980031567625 -0.03020509574972168 11.117522710956559 -0.04406152154934949 0.04364909418640349 0.02915795544597981 0.032634365950773514 0.019268928830557974 0.010672297930146924 -0.024943723529635142 0.03360652530728217 4.812020959631322 -0.009398666535377251 -0.016938288812517424 -0.011534798615342736 -0.008180462812461757 0.012925936205579733 -0.01648624674959626 -0.018149058379365462 -0.0008532105681692474 -5.593739019520051 0.013778618832588144 -0.03616513021907171 -6.706513431173107 0.03615425473234442 0.025809957352215817 -6.673593778603085 0.036350638054554026 0.004956339488802543 0.042595568372431704 -0.030895491343544152 -0.02807267136180612 8.040120419293107 3.4631901322446352 -19.216319772040798 0.0034215111133172236 10.365386078837235 0.025148194902685668 -5.630545948073963 -15.656890552056522 3.194769421259445 0.007472403648570259 0.01616464701107489 -0.0012945962364821493 0.046585382471668525 4.693102501599102 -0.012475944989438227 12.42540844613044 -8.220250571727732 6.8732854011384585 0.03793300769119331 46.40127256549217 0.03031496793627168 -4.333866239969086 -14.753812639828464 -3.8056589772287905 -0.01741378777252312 0.0032466252473375454 0.008384938799693686 0.01720726007665037 -10.778218568474395 -0.018257634081228446 
-0.012081675080536636 0.029810726359715486 0.03666293570951928 -0.003517036717420763 0.03719039389233697 -0.015414355510042874 -4.835640670629374 7.445604874747467 -0.46765298430876295 -0.6755850653833019 2.827619461751391 0.3460299347827229 -0.9614357430982113 -0.10073428083903356 -1.2644557849142244 -1.3732903169654123 0.32204727198606675 -0.979482115009058 -0.9743707677618332 8.871231511062225 2.4347487505860084 -0.15746713499100284 -0.7444264552408266 2.389839361944639 -0.6557689833044492 -14.715190841208532 0.2861918539396661 2.4711884611501156 0.26642547792526244 -8.170393828202487 67.7646624007504 0.8739118596283695 44.93196628119532 43.57290092662054 12.85489238838319 102.10774598025395 29.38977081551574 0.4441396472947861 -15.057549997016539 4.551571753181198 -0.07931088190468022 -1.5640223083751257 -0.0013092090858696666 -0.03081335727758247 -56.26013022422502 -0.014836862029643969 -0.027649981407874603 -56.18716048547456 -38.80534277577742 -0.02203170322552387 -0.008711429125964672 0.030261547528904524 0.006525069758197979 -0.005912632348132196 0.04077269825717282 -0.04749276153309514 0.02625257174170655 -36.679623989907775 0.0074328550688808025 -0.03828757523088901 0.021231928436147837 -0.03381557516708826 0.015339274788982681 -0.004495016245169951 0.03807878741544314 0.018402648415174142 -19.79166507391224 -0.04060812149757748 -0.03322950274687353 0.015313082263220158 -0.00670000365186327 0.026042209538235557 -0.041201363231084476 0.033752916247663654 -0.007477988652901225 24.084699172628657 0.04214067009147069 -0.0011205298666601064 28.87686356837835 0.04242806219595203 0.03734285787628148 28.838648239740916 0.018379028766410472 -0.009646591879296151 0.5007562568937393 0.5712123330133778 7.530350565952213 -62.19114261604808 18.426559432789194 -41.32891009856789 -51.47897848876304 14.923955741411891 -108.1350510635652 -24.74397662220698 -6.685093419073891 4.621781913283037 -0.5231204172128373 0.11344432037856084 -8.12598182954792 0.04999002363942512 0.025530042460929003 44.547338853163566 -0.04516819296203903 -0.008604057795908749 44.57536858138126 12.50864130949959 -0.01697151438451749 -0.02436436197346714 -0.001197141568425524 -0.04392189058628971 0.02194781854416181 -0.04528637045083259 -0.006696480742920381 0.04975321311547494 11.089773766052241 0.031758574070216296 0.005376805577206239 0.03126899600800632 0.01593742011958463 0.02112275410016345 -0.0037614439244316508 0.026118315855481855 -0.01300445924873256 4.734156902108579 0.02157881798907586 0.014501545744639808 0.04329651166227707 -0.013850380463908239 0.008827443597140919 0.03664315543478194 -0.037336196621583904 -0.022523534866019955 -5.578291396130605 -0.030315299737316597 0.010422444734456091 -6.745213288010529 0.04266989360380464 0.04181612222078121 -6.70038073127449 0.04017169702372379 -0.013810548775921078 0.01480511283456141 -0.03974958151272231 -0.012108510413790786 8.002195403220702 3.5245833397425046 -19.223030987147236 0.0008979301152113912 10.429961271358634 -0.016025421979219964 -5.656458066703202 -15.646070734975105 3.2083405148532473 0.030471022810164717 -0.00018496667093244475 -0.04601111017169871 -0.02538817478111588 4.692087395586548 0.005765093506881004 12.490186794082904 -8.191929684906407 6.90807150159633 -0.015753619172605524 46.3908556237299 0.008914442262853988 -4.365410823482088 -14.706805758726237 -3.8084966775727285 -0.03353064299742258 0.026382483105913596 0.009363736367584806 0.03076324618311598 -10.726026374127448 0.019334084445191635 
-0.022367208737988784 0.014284934843122522 0.019979245417489674 -0.03045397305325115 -0.02514737991373299 0.006963576445083195 -4.928139560624865 7.534284609549944 -0.48554213260621054 -0.7148951843790364 2.876062183119623 0.39247912556459746 -0.9310231685367277 -0.09530730276165353 -1.3485787045468915 -1.371107701157623 0.23286638440473698 -0.9711786393540042 -0.8645524693244407 8.964226690908447 2.188980990764021 -0.1628445195139428 -0.6983368038279121 1.9374527423179058 -0.5986722562984284 -14.588004437336044 0.2434421306695452 2.295186655354891 0.34282872324798563 -8.219595032877564 66.58404046536178 -1.8880601253786793 46.01827695471288 41.315108403940755 12.457583554810807 102.79352144812688 29.906405523977906 0.4687662109200228 -14.976852014293042 4.5632171977488625 -0.14152941372065664 -1.5957339461324023 0.04876195758999849 0.007660419600582009 -56.23921071121862 -0.04215375823346531 -0.009205912902770614 -56.21821534506357 -38.76332028045546 0.003090071479746603 -0.00884424167124094 -0.02860468012479198 0.04077769809917088 0.022360040918450126 -0.04191764032809596 -0.008347837631712554 0.0162430893254521 -36.7105731902214 -0.04993987914165494 -0.009446275823535372 0.0046399692373238375 -0.008526320548042856 -0.03504759472393678 0.033475081155477246 0.015953565470640696 -0.001153117232064218 -19.808127990561363 0.03267899340982223 0.0002079608953529323 -0.016248987863116165 -0.01762495981454761 0.0018099999859620465 0.010235134913009366 -0.015619714771637266 0.03167202366784808 24.055955799427466 -0.025735475431966436 0.017570903260047167 28.82508193468316 -0.03889253421989046 -1.2614408180965507e-05 28.86398323508387 -0.010855987189829695 -0.04065576327990584 0.2585753874885033 0.533408831181898 7.562076470438783 -61.138564236474295 18.96734919518801 -41.28771169611496 -43.940319160316406 13.661292042146945 -106.49483062013877 -24.025127980880416 -6.25869819639882 4.225856496926053 -0.46169959401239086 0.08194252408736886 -8.079731760318808 -0.02401945814865557 -0.025831307428234574 44.57315387512238 -0.03325287914234457 0.026774079867449785 44.54176857929979 12.468785372426899 0.01040010227279273 -0.03425150967074573 -0.022707455916753327 0.014456319491339084 -0.02613329792380166 -0.018476112075801365 -0.028959749479864728 0.0186555982248844 11.109597146391794 -0.03295150676857345 0.032802346811665134 0.024834460444565686 0.011826998620922891 0.043713414960400064 -0.014948775857614713 0.006384304847945395 0.03409248021938537 4.801189105406175 -0.010987494907071555 -0.03904675499921394 -0.0012136530369576469 -0.035086452257879104 0.012699392479439785 0.02975693976252322 -0.015678596377514422 0.04174020321300177 -5.591533028922687 -0.012695525359166479 -0.026068856160904944 -6.759534100051873 0.004181241428077532 -0.015039334341544407 -6.7684339839257115 0.015178970096871648 -0.0172428391229876 -0.02158411419469675 0.030978706935950964 -0.0026945099085402416 8.074692118896321 3.4948679746536033 -19.223675202085268 -0.04174840029415185 10.373305856751605 0.062032730839527706 -5.639129138960991 -15.657883638409247 3.158098448482799 -0.036155538815996285 -0.021401828609622517 0.022096406193128883 0.04902904924282397 4.648239883462677 -0.010946316089474063 12.474993325118103 -8.216017397279206 6.868771264090796 -0.021149620647166033 46.39519353171801 -0.004561860303310794 -4.352606059170958 -14.743880592304889 -3.8127031502750675 -0.04570403156822167 0.0005744116275126403 -0.022514090234855837 -0.040741687031277576 -10.72331014232978 0.04014508983263465 
-0.0349192234620762 -0.001498337396258254 -0.045638239508886264 0.028571642426123835 0.03634380349291171 -0.04221428924289709 -5.001421327472942 7.5699420793381424 -0.4721589917678067 -0.7115610616576935 2.8194109394770446 0.3965391095594251 -1.0036005179516592 -0.1099860726043384 -1.3111903572494927 -1.2828009192660055 0.3259130069864323 -1.039476635755099 -0.657059451206754 9.001738450836001 1.9481942408013657 -0.0611455170305464 -0.5962394313005915 1.1332493147257432 -0.5290323949261357 -14.32224088803673 0.15283625948069962 2.2470577434719634 0.3194393760301702 -8.390093502404977 65.5318719279543 -3.9983296836783433 46.34672187468999 37.51036681825281 11.420593644544063 103.58231357626852 29.800422025577532 0.4459828957154656 -14.624520447046132 4.513518513047947 -0.12143650987457671 -1.5623050791738244 0.020765297733858084 0.014788025166011637 -56.256886567483505 -0.011810107358895927 0.021443556695608188 -56.24206397161429 -38.814441706102116 -0.011782015253522878 -0.032120413353364116 -0.014673545382373416 0.02669795548012757 -0.005541213781209079 -0.03624195151792398 -0.043647789771360385 0.04657265270596655 -36.701258057354295 -0.03904650670113813 0.009300079791059455 0.01977313674919901 0.010473856411249802 0.03017046459652001 -0.002033837745639957 -0.020662339607028266 0.016057418121889676 -19.78053150583485 -0.046688521735674414 -0.0033341161072732027 0.010578459519264926 -0.0005508124370371572 0.0026029899706214335 -0.029018868208154084 -0.0005354410170818207 -0.007528970760838785 24.052763003844266 0.0235433676914125 0.01261603618648201 28.88126599524028 -0.014471461274209025 0.0019554633116724233 28.83552606887274 -0.014806702607233562 0.009897107470414286 -0.045681303601946395 0.4408482436527152 7.675418035772096 -59.84920912434652 20.278905248911883 -40.92448558473927 -32.892631848675805 10.642778471373177 -104.6121011280401 -22.2397977293235 -5.815341984601305 3.614671753670323 -0.4908334689898563 0.11459053139457531 -8.124662468146994 0.03831905158010205 -0.03187168678331642 44.55206836108273 -0.0364421293446576 0.019176593597844398 44.608108445188684 12.48943055055982 0.025492198907066364 -0.02400813412474395 0.02043010639444755 -0.012245411777958645 -0.03656454857832118 -0.014237136843587347 0.005111024291155888 0.004982806071363928 11.070651613081807 -0.017794094544239924 0.01785686432137671 0.020673172947305574 0.002394335541734986 -0.03364419883441134 0.037521055785138424 0.025908005409609105 -0.041904491245625036 4.792110308389015 -0.012254645912688789 -0.013901642063968538 -0.0013803198499538999 0.03773776758718241 0.002936875074817597 0.0053125422654763275 0.03821796198992757 -0.020129096291765455 -5.593635902501905 0.047401393855921306 -0.021513152960766446 -6.738621706450934 -0.015225264767491975 -0.032410064811527105 -6.724164927611964 0.006795280193547911 -0.04922666999848353 0.04482875951321602 -0.013812130821538851 -0.019190957239077017 8.036364961521429 3.5229693027866067 -19.205305179103366 -0.017679069626340877 10.387351961880219 0.006319055665792311 -5.613177020133968 -15.650982463014483 3.2126515290121787 -0.038727088901485365 -0.04763137712675403 -0.038259682865469796 -0.024677207946774686 4.678762451155183 0.012754057461988483 12.479277486228199 -8.274778851106277 6.908131392212073 -0.01220898293881476 46.39378793972681 -0.013311842590479468 -4.2845768341851915 -14.739895919316814 -3.8669535620371343 -0.015113914346331999 -0.0028666738244389088 -0.038879108935031 0.0255432794793756 -10.756576159093827 0.03957201102001285 
